<?xml version="1.0" standalone="no"?>
<!DOCTYPE svg PUBLIC "-//W3C//DTD SVG 20010904//EN"
 "http://www.w3.org/TR/2001/REC-SVG-20010904/DTD/svg10.dtd">
<svg version="1.0" xmlns="http://www.w3.org/2000/svg"
 width="256.000000pt" height="256.000000pt" viewBox="0 0 256.000000 256.000000"
 preserveAspectRatio="xMidYMid meet">
<metadata>
Created by potrace 1.14, written by Peter Selinger 2001-2017
</metadata>
<g transform="translate(0.000000,256.000000) scale(0.100000,-0.100000)"
fill="#000000" stroke="none">
<path d="M1094 2434 c-373 -62 -700 -305 -866 -644 -84 -173 -113 -310 -112
-530 1 -143 5 -178 27 -263 60 -226 146 -376 312 -542 133 -133 237 -204 380
-262 329 -132 669 -118 979 40 324 165 545 455 622 819 24 111 24 342 0 451
-107 492 -483 853 -969 932 -111 18 -263 18 -373 -1z m-412 -693 c3 -203 5
-222 24 -247 40 -54 105 -52 141 3 16 23 18 55 21 245 l3 218 55 0 54 0 0
-211 c0 -171 3 -217 16 -244 28 -60 107 -70 142 -17 14 22 18 62 22 247 l5
220 340 0 340 0 49 -25 c28 -14 58 -37 69 -51 41 -57 39 -150 -5 -211 l-20
-29 20 -22 c29 -31 42 -96 30 -152 -12 -55 -68 -108 -133 -124 -24 -6 -129
-11 -234 -11 l-191 0 0 50 0 50 193 0 c174 0 195 2 225 20 27 17 32 25 32 58
0 72 -13 76 -244 82 l-201 5 -3 47 -3 46 195 4 c179 3 197 5 223 24 31 23 42
69 23 103 -18 34 -74 41 -336 41 l-252 0 -5 -177 c-5 -187 -12 -224 -55 -282
-61 -82 -199 -95 -273 -25 -24 23 -27 24 -40 8 -21 -25 -89 -54 -129 -54 -86
0 -150 43 -187 125 -15 34 -18 76 -21 273 l-4 232 55 0 55 0 4 -219z m0 -733
c3 -218 8 -245 47 -275 35 -27 100 -8 122 36 9 18 14 89 17 239 l4 212 53 0
54 0 3 -218 c3 -188 5 -222 21 -245 35 -54 110 -47 139 13 15 30 18 65 18 243
l0 207 60 0 60 0 0 -197 c-1 -181 -5 -232 -24 -303 l-7 -25 295 5 c271 5 296
6 315 24 23 21 28 65 11 96 -14 27 -71 40 -168 40 -108 0 -162 14 -211 57 -90
77 -74 213 31 273 41 24 51 25 261 28 l217 3 0 -50 0 -51 -192 0 c-175 0 -196
-2 -225 -20 -28 -17 -33 -25 -33 -60 0 -62 27 -74 180 -81 173 -8 235 -41 261
-141 23 -84 -20 -168 -103 -204 -39 -17 -79 -19 -435 -22 -414 -3 -451 0 -500
42 l-27 23 -38 -27 c-100 -73 -239 -35 -292 80 -19 41 -21 67 -24 278 l-4 232
55 0 55 0 4 -212z"/>
</g>
</svg>
